<svg xmlns="http://www.w3.org/2000/svg" viewBox="0 0 512 512"><!--!Font Awesome Free 6.5.1 by @fontawesome - https://fontawesome.com License - https://fontawesome.com/license/free Copyright 2023 Fonticons, Inc.--><path d="M256 0c53 0 96 43 96 96v11.4C349.1 123.4 333.6 128 320 128c-11.9 0-23.4-4.8-32-12.8C279.4 107.2 268 96 256 96s-23.4 11.2-32 19.2c-8.6 8-20.1 12.8-32 12.8-13.6 0-29.1-4.6-32-20.6V96c0-53 43-96 96-96zM107.2 288c-18.1-6.8-36.1-13.7-50.6-31.2C48.8 247.4 41 234.9 38 221.1s-1.6-29 2.8-43.3c10.7-34.7 40.6-59.8 75.8-70.2c3.4-.9 6.7-1.7 10.2-2.3C128.9 104.1 130.9 104 134 103.2c4.5-1.2 9 .6 11.8 4.2s3.8 8.6 2 12.9l-5.2 13.1c-11.8 29.7-3.1 63.7 21.4 83.5l95 76c5.6 4.5 11.7 8.1 18.3 10.7c1.5 .9 2.9 1.9 4.3 2.8H240c-17.7 0-32 14.3-32 32l0 112-58.7 0c-1.1-2.1-2.2-4.3-3.5-6.3c-23.3-36.5-58.4-65.8-96-86.2c-4.5-2.4-8.6-5.7-12.6-9c3 .4 6 .9 9.1 1.9c43.6 13.9 84 39 116.3 72.1c12.7 13 22.3 28.2 29.6 44.9L352 337.1l0-1.1c0-17.7 14.3-32 32-32h32c17.7 0 32 14.3 32 32V380c0 61.9-50.1 112-112 112H272c-17.7 0-32-14.3-32-32V448H208c-13.3 0-24-10.7-24-24s10.7-24 24-24h4l0 0h26l0-35.9L192 343.8V368c0 8.8-7.2 16-16 16s-16-7.2-16-16V339.8L20.4 380.5L36.6 431c5.6 17.6-4.1 36.5-21.7 42.1S-21.6 468.9-27.1 451.4L-51 381.9c-2.1-6.5-1.9-13.5 .3-19.9c2.3-6.5 6.5-12 12.1-15.8L48.5 303.7c0-.2 0-.3 0-.5V216.5L112 228.4v70.4c0 7.4 3.4 14.3 9.2 18.9s13.3 6.1 20.1 3.5l21.4-8.1 20 15.2c-3.2 1.6-6.1 3.6-8.8 6.1l-64.9 61.4L107.2 288z"/></svg>